<svg width="1920" height="375" viewBox="0 0 1920 375" fill="none" xmlns="http://www.w3.org/2000/svg">
<path d="M261.909 106.649C138.423 161.849 33.195 129.649 0 106.649L0.995851 366.649L123.983 367.024L246.971 367.399L366.473 367.774L485.975 364.149L963.983 361.649L1441.99 367.649H1681H1800.5H1920V211.649C1888.93 135.649 1776.27 121.982 1723.82 124.649C1652.12 132.649 1587.72 127.982 1564.48 124.649C1514.29 118.249 1405.48 69.3157 1357.34 45.649C1234.66 -18.351 1115.02 35.649 1070.54 70.649C995.651 121.849 947.718 139.982 933.112 142.649C849.461 165.049 761.494 93.9823 727.967 55.649C628.382 -41.151 465.394 9.98235 396.349 47.649L261.909 106.649Z" fill="#F3BA47"/>
<rect y="341" width="1920" height="34" fill="#F3BA47"/>
</svg>